<svg id="Group_472" data-name="Group 472" xmlns="http://www.w3.org/2000/svg" width="391.748" height="22" viewBox="0 0 391.748 22">
  <text id="Inquisitive" transform="translate(150.048 16)" fill="#1b1c2b" font-size="16" font-family="SourceSansPro-Bold, Source Sans Pro" font-weight="700"><tspan x="0" y="0">INQUISITIVE</tspan></text>
  <path id="Icon_awesome-arrow-left" data-name="Icon awesome-arrow-left" d="M87.659,14.23l-.574.631a.58.58,0,0,1-.877,0L81.179,9.338a.728.728,0,0,1,0-.964l5.029-5.526a.58.58,0,0,1,.877,0l.574.631a.731.731,0,0,1-.01.975L84.531,7.717H220.178a.652.652,0,0,1,.621.682v.91a.652.652,0,0,1-.621.682H84.531l3.117,3.263A.726.726,0,0,1,87.659,14.23Z" transform="translate(-80.996 2.836)" fill="#ee4443"/>
  <path id="Icon_awesome-arrow-left-2" data-name="Icon awesome-arrow-left" d="M214.137,14.23l.574.631a.58.58,0,0,0,.877,0l5.029-5.523a.728.728,0,0,0,0-.964l-5.029-5.526a.58.58,0,0,0-.877,0l-.574.631a.731.731,0,0,0,.01.975l3.117,3.263H81.617A.652.652,0,0,0,81,8.4v.91a.652.652,0,0,0,.621.682H217.264l-3.117,3.263A.726.726,0,0,0,214.137,14.23Z" transform="translate(170.949 2.836)" fill="#273f8f"/>
</svg>
