<svg xmlns="http://www.w3.org/2000/svg" width="432.003" height="325.164" viewBox="0 0 432.003 325.164">
  <g id="Group_607" data-name="Group 607" transform="translate(-210.936 -142.225)">
    <text id="Sue" transform="translate(238.125 454.676)" fill="#1b1c2b" font-size="8" font-family="SourceSansPro-Bold, Source Sans Pro" font-weight="700"><tspan x="-7.1" y="0">SUE</tspan></text>
    <line id="Line_119" data-name="Line 119" x1="430.08" transform="translate(211.436 440.584)" fill="none" stroke="#e9e9e9" stroke-width="1"/>
    <line id="Line_117" data-name="Line 117" y1="324.433" transform="translate(264.965 142.55)" fill="none" stroke="#e9e9e9" stroke-width="1"/>
    <line id="Line_116" data-name="Line 116" y1="324.433" transform="translate(211.436 142.956)" fill="none" stroke="#e9e9e9" stroke-width="1"/>
    <line id="Line_118" data-name="Line 118" y1="324.433" transform="translate(319.109 142.55)" fill="none" stroke="#e9e9e9" stroke-width="1"/>
    <line id="Line_120" data-name="Line 120" y1="324.433" transform="translate(372.639 142.55)" fill="none" stroke="#e9e9e9" stroke-width="1"/>
    <line id="Line_121" data-name="Line 121" y1="324.433" transform="translate(426.783 142.55)" fill="none" stroke="#e9e9e9" stroke-width="1"/>
    <line id="Line_122" data-name="Line 122" y1="318.747" transform="translate(480.313 142.55)" fill="none" stroke="#e9e9e9" stroke-width="1"/>
    <line id="Line_123" data-name="Line 123" y1="324.84" transform="translate(534.457 142.55)" fill="none" stroke="#e9e9e9" stroke-width="1"/>
    <rect id="Rectangle_12788" data-name="Rectangle 12788" width="23.174" height="23.381" transform="translate(226.817 440.583) rotate(-90)" fill="#273f8f"/>
    <rect id="Rectangle_12786" data-name="Rectangle 12786" width="274.86" height="23.381" transform="translate(226.817 417.41) rotate(-90)" fill="#ee4443"/>
    <text id="James" transform="translate(291.424 454.27)" fill="#1b1c2b" font-size="8" font-family="SourceSansPro-Bold, Source Sans Pro" font-weight="700"><tspan x="-11.848" y="0">JAMES</tspan></text>
    <rect id="Rectangle_12789" data-name="Rectangle 12789" width="46.348" height="23.381" transform="translate(280.654 440.583) rotate(-90)" fill="#273f8f"/>
    <rect id="Rectangle_12787" data-name="Rectangle 12787" width="251.734" height="23.381" transform="translate(280.654 394.236) rotate(-90)" fill="#ee4443"/>
    <text id="David" transform="translate(345.184 454.27)" fill="#1b1c2b" font-size="8" font-family="SourceSansPro-Bold, Source Sans Pro" font-weight="700"><tspan x="-10.752" y="0">DAVID</tspan></text>
    <rect id="Rectangle_12790" data-name="Rectangle 12790" width="104.785" height="23.381" transform="translate(334.184 440.583) rotate(-90)" fill="#273f8f"/>
    <rect id="Rectangle_12791" data-name="Rectangle 12791" width="193.297" height="23.381" transform="translate(334.184 335.799) rotate(-90)" fill="#ee4443"/>
    <text id="Alex" transform="translate(399.174 455.082)" fill="#1b1c2b" font-size="8" font-family="SourceSansPro-Bold, Source Sans Pro" font-weight="700"><tspan x="-8.888" y="0">ALEX</tspan></text>
    <rect id="Rectangle_12792" data-name="Rectangle 12792" width="104.785" height="23.381" transform="translate(388.328 440.583) rotate(-90)" fill="#273f8f"/>
    <rect id="Rectangle_12793" data-name="Rectangle 12793" width="193.297" height="23.381" transform="translate(388.328 335.799) rotate(-90)" fill="#ee4443"/>
    <text id="Nick" transform="translate(453.318 455.082)" fill="#1b1c2b" font-size="8" font-family="SourceSansPro-Bold, Source Sans Pro" font-weight="700"><tspan x="-8.7" y="0">NICK</tspan></text>
    <rect id="Rectangle_12794" data-name="Rectangle 12794" width="151.085" height="23.381" transform="translate(441.857 440.583) rotate(-90)" fill="#273f8f"/>
    <rect id="Rectangle_12795" data-name="Rectangle 12795" width="146.997" height="23.381" transform="translate(441.857 289.498) rotate(-90)" fill="#ee4443"/>
    <text id="Tom" transform="translate(507.078 454.27)" fill="#1b1c2b" font-size="8" font-family="SourceSansPro-Bold, Source Sans Pro" font-weight="700"><tspan x="-7.932" y="0">TOM</tspan></text>
    <rect id="Rectangle_12796" data-name="Rectangle 12796" width="194.136" height="23.381" transform="translate(496.002 440.583) rotate(-90)" fill="#273f8f"/>
    <rect id="Rectangle_12797" data-name="Rectangle 12797" width="104.222" height="23.381" transform="translate(496.002 246.447) rotate(-90)" fill="#ee4443"/>
    <line id="Line_124" data-name="Line 124" y1="324.84" transform="translate(587.986 142.55)" fill="none" stroke="#e9e9e9" stroke-width="1"/>
    <line id="Line_125" data-name="Line 125" y1="318.428" transform="translate(642.438 142.869)" fill="none" stroke="#e9e9e9" stroke-width="1"/>
    <text id="Steve" transform="translate(560.531 455.082)" fill="#1b1c2b" font-size="8" font-family="SourceSansPro-Bold, Source Sans Pro" font-weight="700"><tspan x="-11.032" y="0">STEVE</tspan></text>
    <rect id="Rectangle_12798" data-name="Rectangle 12798" width="221.718" height="23.381" transform="translate(549.531 440.583) rotate(-90)" fill="#273f8f"/>
    <rect id="Rectangle_12799" data-name="Rectangle 12799" width="76.364" height="23.381" transform="translate(549.531 218.866) rotate(-90)" fill="#ee4443"/>
    <text id="rob" transform="translate(614.367 453.27)" fill="#1b1c2b" font-size="7" font-family="SourceSansPro-Bold, Source Sans Pro" font-weight="700"><tspan x="-6.692" y="0">ROB</tspan></text>
    <rect id="Rectangle_12800" data-name="Rectangle 12800" width="237.144" height="23.381" transform="translate(603.676 440.99) rotate(-90)" fill="#273f8f"/>
    <rect id="Rectangle_12801" data-name="Rectangle 12801" width="61.344" height="23.381" transform="translate(603.676 203.846) rotate(-90)" fill="#ee4443"/>
  </g>
</svg>
