<svg xmlns="http://www.w3.org/2000/svg" width="139.802" height="12.414" viewBox="0 0 139.802 12.414">
  <path id="Icon_awesome-arrow-left" data-name="Icon awesome-arrow-left" d="M87.659,14.23l-.574.631a.58.58,0,0,1-.877,0L81.179,9.338a.728.728,0,0,1,0-.964l5.029-5.526a.58.58,0,0,1,.877,0l.574.631a.731.731,0,0,1-.01.975L84.531,7.717H220.178a.652.652,0,0,1,.621.682v.91a.652.652,0,0,1-.621.682H84.531l3.117,3.263A.726.726,0,0,1,87.659,14.23Z" transform="translate(-80.996 -2.647)" fill="#ee4443"/>
</svg>
