<svg xmlns="http://www.w3.org/2000/svg" width="139.802" height="12.414" viewBox="0 0 139.802 12.414">
  <path id="Icon_awesome-arrow-left" data-name="Icon awesome-arrow-left" d="M214.137,14.23l.574.631a.58.58,0,0,0,.877,0l5.029-5.523a.728.728,0,0,0,0-.964l-5.029-5.526a.58.58,0,0,0-.877,0l-.574.631a.731.731,0,0,0,.01.975l3.117,3.263H81.617A.652.652,0,0,0,81,8.4v.91a.652.652,0,0,0,.621.682H217.264l-3.117,3.263A.726.726,0,0,0,214.137,14.23Z" transform="translate(-80.996 -2.647)" fill="#273f8f"/>
</svg>
