<svg xmlns="http://www.w3.org/2000/svg" xmlns:xlink="http://www.w3.org/1999/xlink" width="50.285" height="36.38" viewBox="0 0 50.285 36.38">
  <defs>
    <clipPath id="clip-path">
      <path id="Path_4037" data-name="Path 4037" d="M963.354,353.373h50.285v-36.38H963.354v36.38Z" transform="translate(-963.354 -316.993)" fill="none"/>
    </clipPath>
  </defs>
  <g id="Group_381" data-name="Group 381" transform="translate(0 0)" clip-path="url(#clip-path)">
    <path id="Path_4015" data-name="Path 4015" d="M1000.845,320.9a1.021,1.021,0,0,1,.352,0,1.859,1.859,0,0,0,.607.214c.137,0,.156-.156.156-.234s-.039-.195-.156-.195a.156.156,0,0,0-.177.175s0,.117-.117.059a1.033,1.033,0,0,0-.43-.156c-.137.02-.47.195-.235.136Zm.92.37a.962.962,0,0,1-.49-.1c-.156,0,.1.37.333.37a.185.185,0,0,0,.2-.214c.019-.038-.02-.058-.039-.058Zm-.529.272c-.1-.195-.176-.272-.215-.234s.059.311.176.389c.138.1.352.1.352.039.02-.078-.215,0-.313-.195Zm-2.584-1.517c-.411,0-.45.292-.45.292s-.02.175.117.175c.294,0,.137-.311.313-.311a1.087,1.087,0,0,1,.47.194c.039-.077-.2-.35-.45-.35Zm2.6,11.089a2.911,2.911,0,0,1,.412-2.237,2.694,2.694,0,0,0-.587,2.355,2.642,2.642,0,0,0,3.093,2.062c.02,0,.039,0,.039-.019a2.633,2.633,0,0,1-2.956-2.16Zm4.091-2.782a1.144,1.144,0,0,0-.059-.506,2.3,2.3,0,0,1-.059-.408c-.019-.175-.274-.195-.313-.409a.384.384,0,0,0-.45-.331c-.138,0-.177-.156-.177-.156s-.333-.7-.94-.7a2.446,2.446,0,0,0-1.39.389c-.176.136-.156-.019-.156-.019a3.468,3.468,0,0,0,.039-.856c-.02-.1.156.039.274.077s-.039-.486-.02-.661a1.439,1.439,0,0,1,.509-.915c.783.078,1.018-.272.959-.389s-.137.039-.549-.117c-.372-.137-.117-.448-.1-.467a1.618,1.618,0,0,0,.294-.429c.02-.156.255-.214.255-.369,0-.467-.724-1.207-.881-1.284-.156-.1-.019-.214-.2-.428-.274-.253-.529-.117-.92-.156-.411-.019-.548-.35-.94-.389-.489,0-.45.195-.822.195s-.724-.409-1.1-.409a.741.741,0,0,0-.763.545.63.63,0,0,0,.254.72c-.783.214-1.39,1.362-1.409,1.323a1.46,1.46,0,0,1,.157-1.128.739.739,0,0,0-.412-.992.459.459,0,0,1-.254-.311.849.849,0,0,0-.94-.642c-1.174,0-1.233.389-2.349.506s-1.723-.175-1.762,0c-.078.292.607.583.568.6a1.384,1.384,0,0,1-.49.117c-2,.253-2.466-.253-2.623-.039s.568.6.666.623c0,0-.177.195-.92.195-1.018,0-1.077-.545-1.077-.662,0-.195.078-.1.235-.1a.35.35,0,0,0,.333-.389.673.673,0,0,0-.47-.681c-.313-.117-1.448-.156-1.429,1.225a1.891,1.891,0,0,0,.431,1.051,3.637,3.637,0,0,0,1.292.8c-.215.68,1,.759,1,.759-.117.526.685.662.842.681a1.8,1.8,0,0,1,.313.058c.02.02.059.117,0,.136a2.691,2.691,0,0,1-.43.039c-1.213,0-2.642,2.607-3.739,2.607a1.156,1.156,0,0,1-1.194-1.051.974.974,0,0,1,.47-.914c.431-.233,1.018.156,1.527.156a1.506,1.506,0,0,0,1.213-.681.879.879,0,0,0-.059-1.245c-.391-.253-.627-.117-.646,0s.274.37.02.486c-.294.136-.8-.447-1.448-.447s-1.077.662-1.155.662-.216-.583-.313-.583a3.347,3.347,0,0,0-.763,2.3,2.565,2.565,0,0,0,2.231,2.607,3.37,3.37,0,0,0,2.114-1.109c.078-.078.763-.759.666-.311a3.7,3.7,0,0,1-1.527,1.828c-.118.077,0,.1.117.175s.216.077.078.214a2.186,2.186,0,0,1-1.116.623c-.274.136-.216.214-.176,1.089a8.941,8.941,0,0,1-.2,2.081,1.2,1.2,0,0,0-.02.253c.039.058.235-.039.352-.136.1-.078.1,0,.1,0,.039.311.216.331.372.583s.059.311.255.545a.84.84,0,0,0,.881.136c.215-.1.333-.039.567.136a.753.753,0,0,0,.47.156c.254-.039.234-.195.273-.331.02-.078.039-.117.176-.02.2.117.294.195.489.078.177-.117-.019-.448-.019-.448a.965.965,0,0,1-.176-.389c-.157-.311-.352-.175-.391-.37a.492.492,0,0,0-.49-.369c-.235,0-.294.136-.567.136-.255,0-.509-.234-.49-.953.02-.623.45-.9,1.253-1.071.822-.194.959-.33,1.1-.447.117-.117.176.467.137.837-.039.311.059.136.059.136.137-.214.255-.272.333-.272s-.02.233-.039.486-.059.311.587.68a2.829,2.829,0,0,1,1.057,1.284c.059,0,.1-.331.156-.331.04,0,.216.35.216.35.411.759.744.681.959.681a1.956,1.956,0,0,1,1.038.195c.47.233.567.077.567-.02a.243.243,0,0,1,.313-.214c.333.117.47.059.509.02.039-.02.059-.1.019-.272-.059-.253-.255-.35-.313-.486a.575.575,0,0,0-.372-.331,2.463,2.463,0,0,1-.391-.311c-.333-.253-.842-.02-1.116-.175a2.014,2.014,0,0,1-1.155-1.517c0-.311.1-.409.529-1.031s.059-1.109.294-1.322c.117-.078.254-.117,1.018.856.841,1.07,1.644.876,1.644.876a1.525,1.525,0,0,1,.118.759c0,.467-.176.953-.138,1.011.118.117.45-.35.568-.35.313.019.059,1.362.509,2.159a.862.862,0,0,0,1.057.292c.627-.156.784.35,1.136.292.215-.058.117-.214.254-.311.137-.117.255.136.548.136.1,0,.176-.1.176-.272s-.059-.253-.215-.428-.1-.331-.255-.486c-.2-.214-.313.02-.548-.234a.92.92,0,0,0-.724-.253c-.176,0-.215-.02-.215-.409,0-1.4.391-1.868.8-2.043a2.585,2.585,0,0,0,.8-.486c.059-.078.079.019.079.117,0,.019.02.136.02.156.039.02.293-.1.567-.409.313-.389.451-.544.607-.583.137-.039-.02.156-.02.156a3.188,3.188,0,0,0-.568,1.79,3.131,3.131,0,0,0,3.132,3.112,3.037,3.037,0,0,0,3.054-2.976,2.816,2.816,0,0,0-1.057-2.529Zm-.176-.35c.078.117.039.545-.04.545-.059,0-.176-.195-.215-.292-.02-.039.02-.1.039-.137.078-.077.176-.174.216-.117Zm-1.821-1.965c.431.019.666.447.764.623a.291.291,0,0,0,.352.194c.215-.038.273.117.273.273s.294.156.313.35a1.14,1.14,0,0,1,.039.35.849.849,0,0,1-.137.175.332.332,0,0,1-.137.02c-.2-.1-.451-.408-.725-.408-.2,0-.215.117-.332.117s-.313-.506-.92-.447c-.45.058-.391.564-.607.68-.45.253-.959.642-1,.662-.039,0-.156.059-.156-.1s.294-.37.45-.876a1.759,1.759,0,0,1,1.82-1.614Zm.862,2.276c-.059,0-.274-.233-.333-.369a.22.22,0,0,1,.215-.156.276.276,0,0,1,.118.525Zm-.92-.583a3.081,3.081,0,0,0-.666.1c-.059.02-.117,0-.1-.039,0,0,.039-.292.294-.33a.619.619,0,0,1,.567.214c0,.039,0,.078-.1.059Zm-4.5-1.556a3.773,3.773,0,0,1,0-1.207,2.06,2.06,0,0,0-.2.234h0a2.448,2.448,0,0,1-1.86.817,4.228,4.228,0,0,0,.216-.817c.117-.759.548-1.05.489-1.109a1.289,1.289,0,0,1-.959.195c-.764-.195-.9,0-.959,0-.039-.078.313-.409.588-.622a6.492,6.492,0,0,0,.685-.7,3.232,3.232,0,0,0,1.214-.233c.039,0-.039.174-.039.174a2.1,2.1,0,0,0,.117,1.674c.078,0,.1-.234.391-.545a1.674,1.674,0,0,1,.8-.447c.333-.1.45-.35.274.039a2.719,2.719,0,0,0,.059,1.4c.137.272.117.292.254.1a6.819,6.819,0,0,1,1.136-1.109c.02-.019.039-.077.078.137.1.486.587.914.509,1.692a1.791,1.791,0,0,1-.627,1.128,1.8,1.8,0,0,0-.313-.973c-.216-.331-.216-.72-.274-.72-.039,0-.039.1-.1.234a2.642,2.642,0,0,1-1.116,1.323c-.254.156-.254.038-.254.038a2.921,2.921,0,0,0-.118-.7Zm4.6-2.607c.02.059-.215.292-.841.156a.584.584,0,0,1-.431-.311c-.02-.039.02-.117.1-.117a1.536,1.536,0,0,1,.568.117c.411.156.587.1.606.156Zm-1.077-.428c.02.077-.059-.02-.391-.02-.352,0-.313-.389-.313-.389,0-.175.157-.253.313-.156a1.742,1.742,0,0,0,.372.174.739.739,0,0,0,.019.389Zm.157-.311a.526.526,0,0,0,.2,0c.118-.02-.059.408-.137.408s-.177-.428-.059-.408Zm-5.736-.389a2.175,2.175,0,0,0,.333-.467,2.318,2.318,0,0,1,1.155-.934s.587.136.763-.156c0-.077-.294.078-.568.02a.487.487,0,0,1-.411-.583.559.559,0,0,1,.568-.486c.391,0,.548.408,1.174.408.274,0,.45-.214.724-.214s.352.389,1.018.408c.666.039.587-.02.685.234s.078.214.274.331.763.72.763,1.011c.02.1-.177.253-.177.253s-.2-.273-.274-.214.156.311.156.311a.375.375,0,0,1-.2.292c-.333.195-.627-.272-1.018-.272-.352.02-.313.564-.177.7a.485.485,0,0,0,.313.175c.156.039.1.253.313.428.137.117.255.117.216.156a1.113,1.113,0,0,0-.431.564c-.156.447.039.739-.117.583a1.892,1.892,0,0,1-.627-1.342s-.039-.195-.078-.195a8.082,8.082,0,0,1-.666.681c-.352.272-.607.583-.666.583s-.216-.35-.02-1.186c.059-.253.1-.409.117-.506.039-.234-.333.194-1.1.447a1.789,1.789,0,0,0-.666.525,2.316,2.316,0,0,1,.157-1.362c.2-.506.274-.564.234-.6s-1.057,1.012-2.212.642c-.059.039.235-.039.43-.234Zm-7.81.778c.744,0,1.194-.077,1.194-.156,0-.058-2.31.137-2.231-.564.528.02,1.37-.02,1.37-.156a4.055,4.055,0,0,1-2.76-.817,1.541,1.541,0,0,1-.411-1.109c.02-.311.254-.875.8-.875,0,0,.627-.039.627.486,0,.35-.274.175-.274.175s-.137-.078-.2.038-.234,1.012.862,1.128a2.992,2.992,0,0,0,1.684-.272,4.023,4.023,0,0,0,1.409.117c.019-.077-1.7-.311-1.664-.564a7.707,7.707,0,0,0,2.7-.253,2.845,2.845,0,0,0,1.546-.1,4.715,4.715,0,0,1-1.918-.331s-.235-.136.078-.077a5.3,5.3,0,0,0,2.349-.234c1.038-.35,1.527-.214,1.684.02.137.233.176.506.431.623a.731.731,0,0,1,.411.35.426.426,0,0,1-.019.408c-.352,1.031-.2.973-.078,1.343.039.117-.607.214-.627.272-.02.117.45.195.587.233a1.341,1.341,0,0,1-.451.545c-.392.331-.783.583-.8,1.148-.02.156.039.077.078.058a1.088,1.088,0,0,1,.94-.194c.587.156.666.019.685.117.02.077-.078.156-.137.428-.059.253-1.859,1.3-2.564.778.176-.1.49-.408.43-.467-.059-.077-1.174.876-2,.02.254-.077.666-.331.626-.408s-1.527.68-1.938-.175c.43-.02,1.194-.195,1.135-.292s-2.427.486-2.408-.565c.588,0,1.429-.077,1.429-.195-.078-.1-2.584.214-2.584-.486Zm-.45,10.895c-.079,0-.372-.117-.313-.253,0,0,.078-.214.2-.214a.239.239,0,0,1,.255.214c0,.136-.059.234-.137.253Zm.645-.6c.157-.058.294.311.216.37s-.43-.078-.372-.214c0,0,0-.117.156-.156Zm5.442.565c-.078.02-.509-.078-.45-.311a.207.207,0,0,1,.313-.1c.234.136.234.389.137.409Zm.568-.74a.167.167,0,0,1,.176.059c.137.156.2.408.118.408-.059,0-.412-.019-.451-.233a.228.228,0,0,1,.157-.234Zm-2.584-3.6a1.507,1.507,0,0,0-.528,1.148,2.23,2.23,0,0,0,1.37,1.692c.411.136.606-.1.959.116a2.058,2.058,0,0,0,.412.292c.254.117.293.214.215.272-.215.175-.039.408-.117.447-.117.059-.47-.311-.724-.214-.235.1-.1.292-.2.292a2.833,2.833,0,0,0-.744-.1c-.411.02-.567-.175-.841-.6-.294-.467-.451-.817-.529-.817s-.02.292-.1.272a4.816,4.816,0,0,0-1.194-1.089c-.079-.038-.157-.117-.1-.408a2.6,2.6,0,0,0,.078-.953c-.059-.02-.411.408-.509.408-.039,0-.02-.253,0-.35a2.133,2.133,0,0,1,.274-.9c.255-.428.45-.759.939-.759.274,0,.294.156.431.156s.274-.389.8-.389c.587.019.274,1.245.1,1.478Zm6.421,4.514c-.118,0-.529-.273-.352-.35a.361.361,0,0,1,.313-.02c.137.077.137.37.039.37Zm.646-.681c.137,0,.352.389.215.447s-.411-.117-.391-.214c.02,0,.059-.233.176-.233Zm1.233-5.292c-.313.331-.841,1.226-.881,1.187-.059-.059.078-.447-.04-.486s-.078.136-.43.428a2.591,2.591,0,0,1-.587.35,1.338,1.338,0,0,0-.685.506,3.815,3.815,0,0,0-.352,2.315c.059.214.254.1.528.1s.352.214.49.33.274.039.411.059.2.156.2.292-.176.428-.313.428-.254-.175-.431-.156-.2.078-.294.117a.606.606,0,0,1-.333.058c-.391-.019-.333.1-.724.1-.333,0-.587-.545-.607-1.479s-.254-1.011-.411-1.05c-.078-.02-.156.039-.294.195s-.059-.1-.059-.1a3.266,3.266,0,0,0-.02-1.537c-.078-.914.078-1.148.372-1.42s.451-.486.451-.72c0-.194-.04,0-.04,0-.254.584-.724.623-.939.992a1.832,1.832,0,0,0-.137,1.128c-1.018,0-1.429-.837-1.82-1.245a1.665,1.665,0,0,0-1.292-.662c-.548,0-.685.136-.783.214-.117.078-.234.175-.333.117a.984.984,0,0,0-.528-.039c-.1.039-.078-.058-.078-.058a.865.865,0,0,1,.528-.428s.235-.02.078-.058c-.567-.02-.939.467-1.213.992a2.845,2.845,0,0,1-.685,1.09c-.47.486-1.39.428-2,.778a1.333,1.333,0,0,0-.509,1.245c.059.486.2.778.567.856s.49-.078.7-.078.235.156.255.233.02.156.156.156c.176,0,.255.195.294.292.02.078.02.117-.1.156-.1.039-.039.175-.156.195-.137.02-.255-.214-.47-.195-.234.02-.255.273-.313.312-.078.077-.1.019-.2-.02-.274-.117-.47.1-.763.077-.333,0-.451-.467-.49-.564-.078-.214-.333-.35-.352-.565,0-.136-.059-.389-.156-.389-.079-.02-.216.175-.274.156a10.073,10.073,0,0,0,.156-2.082c-.019-.681,0-.72.294-.837a2.182,2.182,0,0,0,1.135-.778c.137-.175-.1-.233-.215-.311-.078-.039.02-.117.059-.156a5.273,5.273,0,0,0,1.077-1.109c.255-.389.49-1.186.117-1.186-.391,0-1.663,1.692-2.78,1.692a2.179,2.179,0,0,1-2.055-1.984,3.334,3.334,0,0,1,.431-2.218c.137-.039.117.875.234.875s.392-1.186,1.312-1.186c.724,0,1.116.661,1.508.467s.059-.545.117-.642.489.077.489.6a1.236,1.236,0,0,1-1.174,1.089c-.587,0-.724-.253-1.292-.253a1.067,1.067,0,0,0-.979,1.011,1.392,1.392,0,0,0,1.273,1.5c1.1,0,2.369-1.654,2.877-2.121.509-.486,1.214-.662,1.488-.37a2.112,2.112,0,0,0,1.037.37,1.2,1.2,0,0,0,1.429.6c.45.856,1.624.506,1.624.506.862.8,2.721-.467,2.721-.467a1.026,1.026,0,0,1-.372.72c-.137.077.02.1.02.1a3.345,3.345,0,0,0,2.153-.467.147.147,0,0,0,.02.058,5.272,5.272,0,0,1,.157,1.323c-.059.175.137.078.137.078a2.536,2.536,0,0,0,1.566-1.4,1.077,1.077,0,0,0,.215.448,1.477,1.477,0,0,1,.118,1.07c-.059.292.666-.526.666-.526a2.266,2.266,0,0,1-.509,1.381Zm2.565,5.369a2.86,2.86,0,1,1,0-5.719h.117a.533.533,0,0,1,.352.253c.039.078.176.292.352.292.2,0,.215-.331.313-.35.234,0,.489.622.627.6.078-.02.117-.137.117-.137a2.811,2.811,0,0,1,1,2.179,2.865,2.865,0,0,1-2.877,2.879Zm-17.129.1a3.636,3.636,0,0,1-.724.195c-.7.117-.509.117-.509.117h1.507c.117,0-.059-.039-.156-.136-.1-.117-.079-.175-.118-.175Zm9.866.214c-.7.1-.352.1-.352.1h.9a.6.6,0,0,0-.1-.214c-.1-.077-.255.078-.45.117Zm-3.935-.174c-.059-.078.039.038-.685.156a7.427,7.427,0,0,1-.978.117H992.6a1.192,1.192,0,0,1-.391-.272Zm9.416-.078c-.059-.039-.078-.02-.117.02a2.463,2.463,0,0,1-.627.272c-.254.059-.156.059-.156.059h1.742s.117,0-.118-.059a2.948,2.948,0,0,1-.724-.292Z" transform="translate(-969.857 -317.683)" fill="#fff"/>
    <path id="Path_4016" data-name="Path 4016" d="M965.736,351.483l1.684-.156a2.046,2.046,0,0,0,.626,1.245,1.824,1.824,0,0,0,1.253.389,1.983,1.983,0,0,0,1.273-.35,1.073,1.073,0,0,0,.43-.817.848.848,0,0,0-.177-.525,1.428,1.428,0,0,0-.626-.369c-.2-.078-.666-.195-1.39-.37a4.759,4.759,0,0,1-1.958-.837,2.24,2.24,0,0,1-.411-2.937,2.545,2.545,0,0,1,1.077-.876,4.423,4.423,0,0,1,1.684-.292,3.7,3.7,0,0,1,2.447.7,2.435,2.435,0,0,1,.861,1.887l-1.742.077a1.521,1.521,0,0,0-.47-.953,1.717,1.717,0,0,0-1.1-.292,1.978,1.978,0,0,0-1.194.311.646.646,0,0,0-.274.525.68.68,0,0,0,.255.526,4.611,4.611,0,0,0,1.605.564,8.319,8.319,0,0,1,1.879.622,2.375,2.375,0,0,1,1.312,2.237,2.52,2.52,0,0,1-1.566,2.334,4.792,4.792,0,0,1-1.879.311,3.7,3.7,0,0,1-2.505-.759,3.225,3.225,0,0,1-1.1-2.2Z" transform="translate(-964.131 -326.323)" fill="#fff"/>
    <path id="Path_4017" data-name="Path 4017" d="M981.136,345.762h1.723v5.408a5.146,5.146,0,0,1-.2,1.634,2.344,2.344,0,0,1-.92,1.206,3.122,3.122,0,0,1-1.742.447,2.614,2.614,0,0,1-1.958-.7,2.9,2.9,0,0,1-.685-2.082l1.645-.195a2.319,2.319,0,0,0,.216,1.031.94.94,0,0,0,.861.467.956.956,0,0,0,.822-.331,2.618,2.618,0,0,0,.235-1.362v-5.525Z" transform="translate(-967.923 -326.38)" fill="#fff"/>
    <path id="Path_4018" data-name="Path 4018" d="M987.557,354.321v-8.559h2.78a9.315,9.315,0,0,1,2.075.136,2.308,2.308,0,0,1,1.233.836,2.66,2.66,0,0,1,.49,1.673,2.7,2.7,0,0,1-.294,1.323,2.352,2.352,0,0,1-.724.837,2.86,2.86,0,0,1-.9.408,10.4,10.4,0,0,1-1.8.117H989.28v3.229Zm1.742-7.1v2.432h.94a4.257,4.257,0,0,0,1.37-.136,1.205,1.205,0,0,0,.548-.428,1.1,1.1,0,0,0,.2-.661,1.18,1.18,0,0,0-.274-.778,1.133,1.133,0,0,0-.7-.37,8.484,8.484,0,0,0-1.253-.059Z" transform="translate(-971.251 -326.38)" fill="#fff"/>
    <path id="Path_4019" data-name="Path 4019" d="M1002.55,354.359v-8.482h1.742v7.043h4.326v1.44Z" transform="translate(-976.143 -326.418)" fill="#fff"/>
    <path id="Path_4020" data-name="Path 4020" d="M1018.14,353.244a3.646,3.646,0,0,1-1.135.875,3.092,3.092,0,0,1-1.331.292,2.6,2.6,0,0,1-2.095-.895,2.431,2.431,0,0,1-.627-1.615,2.312,2.312,0,0,1,.509-1.44,4.378,4.378,0,0,1,1.526-1.128,5.582,5.582,0,0,1-.783-1.07,1.764,1.764,0,0,1-.2-.8,1.79,1.79,0,0,1,.607-1.342,2.206,2.206,0,0,1,1.527-.565,1.969,1.969,0,0,1,1.448.545,1.7,1.7,0,0,1,.568,1.284c0,.817-.548,1.5-1.625,2.082l1.547,1.945a4.974,4.974,0,0,0,.411-1.186l1.1.233a6.49,6.49,0,0,1-.763,1.849,5.682,5.682,0,0,0,1.351,1.3l-.7.837a5.748,5.748,0,0,1-1.331-1.206Zm-.666-.837-1.938-2.393a3.842,3.842,0,0,0-1.155.934,1.557,1.557,0,0,0-.294.856,1.8,1.8,0,0,0,.412,1.07,1.38,1.38,0,0,0,1.174.564,1.95,1.95,0,0,0,.979-.292,2.149,2.149,0,0,0,.822-.739Zm-1.488-3.618a2.786,2.786,0,0,0,.881-.7,1.135,1.135,0,0,0,.2-.661,1.027,1.027,0,0,0-.274-.72,1.048,1.048,0,0,0-1.409,0,.871.871,0,0,0-.294.662,1.032,1.032,0,0,0,.1.408,2.4,2.4,0,0,0,.313.467l.49.545Z" transform="translate(-979.537 -326.314)" fill="#fff"/>
    <path id="Path_4021" data-name="Path 4021" d="M1025.185,345.762h3.171a6.95,6.95,0,0,1,1.645.156,2.918,2.918,0,0,1,1.291.778,3.877,3.877,0,0,1,.823,1.381,6.105,6.105,0,0,1,.274,2.023,5.741,5.741,0,0,1-.254,1.828,3.91,3.91,0,0,1-.92,1.518,2.914,2.914,0,0,1-1.213.681,5.55,5.55,0,0,1-1.547.174h-3.269v-8.54Zm1.742,1.459v5.661h1.292a4.617,4.617,0,0,0,1.058-.077,1.442,1.442,0,0,0,1.155-1.168,5.593,5.593,0,0,0,.176-1.556,5.113,5.113,0,0,0-.176-1.517,2.062,2.062,0,0,0-.49-.837,1.737,1.737,0,0,0-.8-.408,7.642,7.642,0,0,0-1.429-.078h-.783v-.02Z" transform="translate(-983.529 -326.38)" fill="#fff"/>
    <path id="Path_4022" data-name="Path 4022" d="M966.491,364.985v-4.727h.626v4.727Z" transform="translate(-964.377 -331.11)" fill="#fff"/>
    <path id="Path_4023" data-name="Path 4023" d="M968.874,365.579v-3.424h.528v.486a1.267,1.267,0,0,1,1.1-.564,1.351,1.351,0,0,1,.568.117.9.9,0,0,1,.391.292,1.051,1.051,0,0,1,.177.428,3.389,3.389,0,0,1,.039.564v2.1h-.588V363.5a1.759,1.759,0,0,0-.059-.525.46.46,0,0,0-.235-.272.713.713,0,0,0-.411-.1.941.941,0,0,0-.646.233,1.163,1.163,0,0,0-.274.895V365.6h-.587v-.02Z" transform="translate(-965.155 -331.703)" fill="#fff"/>
    <path id="Path_4024" data-name="Path 4024" d="M973.93,364.519l.587-.1a.768.768,0,0,0,.274.525,1,1,0,0,0,.627.175,1.026,1.026,0,0,0,.607-.156.477.477,0,0,0,.2-.389.35.35,0,0,0-.176-.311,2.115,2.115,0,0,0-.607-.195,7.856,7.856,0,0,1-.9-.272.884.884,0,0,1-.372-.331.933.933,0,0,1-.137-.467,1.055,1.055,0,0,1,.1-.428.942.942,0,0,1,.294-.331,2.188,2.188,0,0,1,.372-.175,2.138,2.138,0,0,1,.509-.078,1.918,1.918,0,0,1,.7.117.979.979,0,0,1,.45.312,1.285,1.285,0,0,1,.2.525l-.567.078a.555.555,0,0,0-.235-.409.814.814,0,0,0-.528-.156.836.836,0,0,0-.568.136.4.4,0,0,0-.177.311.249.249,0,0,0,.079.195.473.473,0,0,0,.215.156c.059.02.235.078.509.156a6.578,6.578,0,0,1,.861.272,1.024,1.024,0,0,1,.391.312.811.811,0,0,1,.137.505.947.947,0,0,1-.177.545.974.974,0,0,1-.489.389,1.712,1.712,0,0,1-.724.137,1.666,1.666,0,0,1-1.018-.273,1.088,1.088,0,0,1-.431-.778Z" transform="translate(-966.805 -331.675)" fill="#fff"/>
    <path id="Path_4025" data-name="Path 4025" d="M979.1,366.9v-4.747h.548v.448a1.161,1.161,0,0,1,.431-.389,1.282,1.282,0,0,1,.568-.136,1.37,1.37,0,0,1,.783.233,1.392,1.392,0,0,1,.509.642,2.29,2.29,0,0,1,.176.9,2.2,2.2,0,0,1-.2.953,1.374,1.374,0,0,1-.548.642,1.355,1.355,0,0,1-.763.233,1.178,1.178,0,0,1-.529-.117,1.554,1.554,0,0,1-.391-.311v1.673H979.1v-.02Zm.528-3.016a1.478,1.478,0,0,0,.274.973.8.8,0,0,0,.646.311.855.855,0,0,0,.666-.331,1.6,1.6,0,0,0,.273-1.011,1.52,1.52,0,0,0-.273-.973.818.818,0,0,0-.646-.331.846.846,0,0,0-.665.35,1.638,1.638,0,0,0-.274,1.011Z" transform="translate(-968.492 -331.703)" fill="#fff"/>
    <path id="Path_4026" data-name="Path 4026" d="M984.506,360.919v-.661h.587v.661Zm0,4.066v-3.424h.587v3.424Z" transform="translate(-970.255 -331.11)" fill="#fff"/>
    <path id="Path_4027" data-name="Path 4027" d="M986.6,365.579v-3.424h.529v.525a1.346,1.346,0,0,1,.372-.486.648.648,0,0,1,.372-.117,1.109,1.109,0,0,1,.607.195l-.2.544a.9.9,0,0,0-.431-.117.589.589,0,0,0-.352.117.6.6,0,0,0-.216.311,2.49,2.49,0,0,0-.1.681v1.79H986.6v-.02Z" transform="translate(-970.938 -331.703)" fill="#fff"/>
    <path id="Path_4028" data-name="Path 4028" d="M989.794,360.919v-.661h.587v.661Zm0,4.066v-3.424h.587v3.424Z" transform="translate(-971.981 -331.11)" fill="#fff"/>
    <path id="Path_4029" data-name="Path 4029" d="M991.886,365.579v-3.424h.529v.486a1.267,1.267,0,0,1,1.1-.564,1.353,1.353,0,0,1,.568.117.9.9,0,0,1,.391.292,1.052,1.052,0,0,1,.176.428,3.381,3.381,0,0,1,.039.564v2.1H994.1V363.5a1.763,1.763,0,0,0-.059-.525.465.465,0,0,0-.235-.272.714.714,0,0,0-.411-.1.94.94,0,0,0-.646.233,1.161,1.161,0,0,0-.274.895V365.6h-.588v-.02Z" transform="translate(-972.663 -331.703)" fill="#fff"/>
    <path id="Path_4030" data-name="Path 4030" d="M997.05,365.871l.568.077a.62.62,0,0,0,.2.389.912.912,0,0,0,.587.156,1.1,1.1,0,0,0,.627-.156.7.7,0,0,0,.294-.447,3.287,3.287,0,0,0,.039-.74,1.218,1.218,0,0,1-.959.448,1.316,1.316,0,0,1-1.1-.506,1.955,1.955,0,0,1-.392-1.225,2.371,2.371,0,0,1,.177-.915,1.522,1.522,0,0,1,.509-.642,1.39,1.39,0,0,1,.8-.233,1.192,1.192,0,0,1,1,.486v-.409h.548v2.958a2.991,2.991,0,0,1-.157,1.128,1.241,1.241,0,0,1-.528.526,2.023,2.023,0,0,1-1.88-.077,1,1,0,0,1-.333-.817Zm.49-2.062a1.54,1.54,0,0,0,.274.992.847.847,0,0,0,.685.311.876.876,0,0,0,.685-.311,1.485,1.485,0,0,0,.273-.973,1.46,1.46,0,0,0-.273-.953.874.874,0,0,0-.685-.311.834.834,0,0,0-.666.311,1.273,1.273,0,0,0-.294.934Z" transform="translate(-974.304 -331.703)" fill="#fff"/>
    <path id="Path_4031" data-name="Path 4031" d="M1007.583,363.1v-.564h2.016v1.751a3.19,3.19,0,0,1-.959.544,3.036,3.036,0,0,1-1.018.195,2.723,2.723,0,0,1-1.273-.292,1.926,1.926,0,0,1-.861-.856,2.674,2.674,0,0,1-.294-1.265,2.808,2.808,0,0,1,.294-1.283,1.882,1.882,0,0,1,.841-.9,2.65,2.65,0,0,1,1.253-.292,2.384,2.384,0,0,1,.94.175,1.631,1.631,0,0,1,.646.467,1.93,1.93,0,0,1,.352.778l-.568.156a1.7,1.7,0,0,0-.274-.564,1.128,1.128,0,0,0-.45-.331,2.031,2.031,0,0,0-1.409.02,1.444,1.444,0,0,0-.8.817,2.514,2.514,0,0,0-.176.953,2.325,2.325,0,0,0,.216,1.051,1.375,1.375,0,0,0,.645.642,1.787,1.787,0,0,0,.881.214,2.251,2.251,0,0,0,.8-.156,2,2,0,0,0,.587-.331v-.875h-1.39V363.1Z" transform="translate(-977.006 -331.072)" fill="#fff"/>
    <path id="Path_4032" data-name="Path 4032" d="M1012.894,365.579v-3.424h.529v.525a1.347,1.347,0,0,1,.372-.486.649.649,0,0,1,.372-.117,1.106,1.106,0,0,1,.606.195l-.2.544a.9.9,0,0,0-.43-.117.59.59,0,0,0-.352.117.6.6,0,0,0-.216.311,2.49,2.49,0,0,0-.1.681v1.79h-.587v-.02Z" transform="translate(-979.518 -331.703)" fill="#fff"/>
    <path id="Path_4033" data-name="Path 4033" d="M1015.771,363.858a1.788,1.788,0,0,1,.528-1.42,1.623,1.623,0,0,1,1.077-.389,1.522,1.522,0,0,1,1.155.467,1.8,1.8,0,0,1,.451,1.284,2.231,2.231,0,0,1-.2,1.05,1.414,1.414,0,0,1-.587.584,1.745,1.745,0,0,1-.842.214,1.539,1.539,0,0,1-1.174-.467,2.015,2.015,0,0,1-.411-1.322Zm.606,0a1.468,1.468,0,0,0,.294.992.958.958,0,0,0,1.448,0,1.821,1.821,0,0,0,0-1.984.958.958,0,0,0-1.448,0,1.434,1.434,0,0,0-.294.992Z" transform="translate(-980.457 -331.694)" fill="#fff"/>
    <path id="Path_4034" data-name="Path 4034" d="M1021.941,365.617l-1.057-3.424h.607l.548,1.985.2.739q0-.059.177-.7l.548-2h.607l.509,1.985.176.661.2-.661.587-1.985h.568l-1.077,3.424h-.607l-.548-2.062-.137-.584-.7,2.646h-.587v-.02Z" transform="translate(-982.125 -331.741)" fill="#fff"/>
    <path id="Path_4035" data-name="Path 4035" d="M1029.657,364.507l.078.506a1.9,1.9,0,0,1-.45.058,1.083,1.083,0,0,1-.49-.1.578.578,0,0,1-.254-.272,2.269,2.269,0,0,1-.078-.681v-1.965h-.431v-.448h.431v-.856l.587-.35v1.206h.588v.448h-.588v2a.821.821,0,0,0,.039.311.505.505,0,0,0,.1.117.491.491,0,0,0,.2.039,1.494,1.494,0,0,0,.274-.02Z" transform="translate(-984.458 -331.157)" fill="#fff"/>
    <path id="Path_4036" data-name="Path 4036" d="M1031.17,364.985v-4.727h.588v1.692a1.333,1.333,0,0,1,1.037-.467,1.454,1.454,0,0,1,.666.156.832.832,0,0,1,.411.408,1.97,1.97,0,0,1,.117.778V365h-.587v-2.179a.872.872,0,0,0-.2-.642.682.682,0,0,0-.528-.194.885.885,0,0,0-.49.136.868.868,0,0,0-.333.369,1.479,1.479,0,0,0-.1.642V365h-.588v-.02Z" transform="translate(-985.482 -331.11)" fill="#fff"/>
  </g>
</svg>
