<svg xmlns="http://www.w3.org/2000/svg" xmlns:xlink="http://www.w3.org/1999/xlink" width="57" height="57" viewBox="0 0 57 57">
  <defs>
    <filter id="Ellipse_185" x="0" y="0" width="57" height="57" filterUnits="userSpaceOnUse">
      <feOffset input="SourceAlpha"/>
      <feGaussianBlur stdDeviation="5" result="blur"/>
      <feFlood flood-color="#a5a5a5" flood-opacity="0.161"/>
      <feComposite operator="in" in2="blur"/>
      <feComposite in="SourceGraphic"/>
    </filter>
  </defs>
  <g id="Group_617" data-name="Group 617" transform="translate(-7 -530)">
    <g transform="matrix(1, 0, 0, 1, 7, 530)" filter="url(#Ellipse_185)">
      <circle id="Ellipse_185-2" data-name="Ellipse 185" cx="13.5" cy="13.5" r="13.5" transform="translate(15 15)" fill="#fff"/>
    </g>
    <path id="heart" d="M13.189,4.279a3.877,3.877,0,0,0-5.03-.394A3.865,3.865,0,0,0,3.13,9.728l3.828,3.834a1.714,1.714,0,0,0,2.4,0l3.828-3.834A3.865,3.865,0,0,0,13.189,4.279Zm-.869,4.6L8.492,12.705a.468.468,0,0,1-.666,0L4,8.859a2.615,2.615,0,0,1,3.7-3.7.616.616,0,0,0,.875,0,2.633,2.633,0,0,1,3.748,3.7Z" transform="translate(26.982 550.345)" fill="#273f8f"/>
  </g>
</svg>
