<svg xmlns="http://www.w3.org/2000/svg" xmlns:xlink="http://www.w3.org/1999/xlink" width="56" height="57" viewBox="0 0 56 57">
  <defs>
    <filter id="Ellipse_163" x="0" y="0" width="56" height="57" filterUnits="userSpaceOnUse">
      <feOffset input="SourceAlpha"/>
      <feGaussianBlur stdDeviation="5" result="blur"/>
      <feFlood flood-color="#a5a5a5" flood-opacity="0.161"/>
      <feComposite operator="in" in2="blur"/>
      <feComposite in="SourceGraphic"/>
    </filter>
  </defs>
  <g id="Group_605" data-name="Group 605" transform="translate(14.8 15.479)">
    <g transform="matrix(1, 0, 0, 1, -14.8, -15.48)" filter="url(#Ellipse_163)">
      <ellipse id="Ellipse_163-2" data-name="Ellipse 163" cx="13" cy="13.5" rx="13" ry="13.5" transform="translate(15 15)" fill="#fff"/>
    </g>
    <path id="cog" d="M13.909,6.654l-1.165-.388.549-1.1a.616.616,0,0,0-.117-.7L11.862,3.153a.616.616,0,0,0-.709-.117l-1.1.549L9.668,2.419A.616.616,0,0,0,9.089,2H7.239a.616.616,0,0,0-.586.419L6.265,3.584l-1.1-.549a.616.616,0,0,0-.7.117L3.153,4.466a.616.616,0,0,0-.117.709l.549,1.1L2.419,6.66A.616.616,0,0,0,2,7.239V9.089a.616.616,0,0,0,.419.586l1.165.388-.549,1.1a.616.616,0,0,0,.117.7l1.313,1.313a.616.616,0,0,0,.709.117l1.1-.549.388,1.165a.616.616,0,0,0,.586.419H9.095a.616.616,0,0,0,.586-.419l.388-1.165,1.1.549a.616.616,0,0,0,.7-.117l1.313-1.313a.616.616,0,0,0,.117-.709l-.549-1.1,1.165-.388a.616.616,0,0,0,.419-.579V7.239a.616.616,0,0,0-.419-.586ZM13.1,8.645l-.74.247a1.233,1.233,0,0,0-.715,1.738l.351.7-.678.678-.684-.37a1.233,1.233,0,0,0-1.72.715l-.247.74h-.98l-.247-.74A1.233,1.233,0,0,0,5.7,11.64l-.7.351-.678-.678.37-.684a1.233,1.233,0,0,0-.715-1.738l-.74-.247V7.683l.74-.247A1.233,1.233,0,0,0,4.687,5.7l-.351-.684.678-.678.684.351a1.233,1.233,0,0,0,1.738-.715l.247-.74h.962l.247.74a1.233,1.233,0,0,0,1.738.715l.7-.351.678.678-.37.684a1.233,1.233,0,0,0,.715,1.72l.74.247ZM8.164,5.7A2.466,2.466,0,1,0,10.63,8.164,2.466,2.466,0,0,0,8.164,5.7Zm0,3.7A1.233,1.233,0,1,1,9.4,8.164,1.233,1.233,0,0,1,8.164,9.4Z" transform="translate(5.364 5.37)" fill="#273f8f"/>
  </g>
</svg>
