<svg xmlns="http://www.w3.org/2000/svg" width="748.5" height="285.327" viewBox="0 0 748.5 285.327">
  <g id="Group_616" data-name="Group 616" transform="translate(-44.5 -124)">
    <line id="Line_119" data-name="Line 119" x1="744" transform="translate(44.5 380.584)" fill="none" stroke="#e9e9e9" stroke-width="1"/>
    <text id="name" transform="translate(99 388) rotate(-90)" fill="#1b1c2b" font-size="8" font-family="SourceSansPro-Bold, Source Sans Pro" font-weight="700"><tspan x="-20.472" y="0">NAME</tspan></text>
    <g id="Group_608" data-name="Group 608" transform="translate(92.241 124)">
      <rect id="Rectangle_12788" data-name="Rectangle 12788" width="23.174" height="7" transform="translate(0 256.586) rotate(-90)" fill="#273f8f"/>
      <rect id="Rectangle_12786" data-name="Rectangle 12786" width="233.412" height="7" transform="translate(0 233.412) rotate(-90)" fill="#ee4443"/>
    </g>
    <text id="name-2" data-name="name" transform="translate(114 388) rotate(-90)" fill="#1b1c2b" font-size="8" font-family="SourceSansPro-Bold, Source Sans Pro" font-weight="700"><tspan x="-20.472" y="0">NAME</tspan></text>
    <g id="Group_608-2" data-name="Group 608" transform="translate(107.241 124)">
      <rect id="Rectangle_12788-2" data-name="Rectangle 12788" width="23.174" height="7" transform="translate(0 256.586) rotate(-90)" fill="#273f8f"/>
      <rect id="Rectangle_12786-2" data-name="Rectangle 12786" width="233.412" height="7" transform="translate(0 233.412) rotate(-90)" fill="#ee4443"/>
    </g>
    <text id="name-3" data-name="name" transform="translate(129 388) rotate(-90)" fill="#1b1c2b" font-size="8" font-family="SourceSansPro-Bold, Source Sans Pro" font-weight="700"><tspan x="-20.472" y="0">NAME</tspan></text>
    <g id="Group_608-3" data-name="Group 608" transform="translate(122.241 124)">
      <rect id="Rectangle_12788-3" data-name="Rectangle 12788" width="23.174" height="7" transform="translate(0 256.586) rotate(-90)" fill="#273f8f"/>
      <rect id="Rectangle_12786-3" data-name="Rectangle 12786" width="233.412" height="7" transform="translate(0 233.412) rotate(-90)" fill="#ee4443"/>
    </g>
    <text id="name-4" data-name="name" transform="translate(144 388) rotate(-90)" fill="#1b1c2b" font-size="8" font-family="SourceSansPro-Bold, Source Sans Pro" font-weight="700"><tspan x="-20.472" y="0">NAME</tspan></text>
    <g id="Group_608-4" data-name="Group 608" transform="translate(137.241 124)">
      <rect id="Rectangle_12788-4" data-name="Rectangle 12788" width="23.174" height="7" transform="translate(0 256.586) rotate(-90)" fill="#273f8f"/>
      <rect id="Rectangle_12786-4" data-name="Rectangle 12786" width="233.412" height="7" transform="translate(0 233.412) rotate(-90)" fill="#ee4443"/>
    </g>
    <text id="name-5" data-name="name" transform="translate(84 388) rotate(-90)" fill="#1b1c2b" font-size="8" font-family="SourceSansPro-Bold, Source Sans Pro" font-weight="700"><tspan x="-20.472" y="0">NAME</tspan></text>
    <g id="Group_608-5" data-name="Group 608" transform="translate(77.241 124)">
      <rect id="Rectangle_12788-5" data-name="Rectangle 12788" width="23.174" height="7" transform="translate(0 256.586) rotate(-90)" fill="#273f8f"/>
      <rect id="Rectangle_12786-5" data-name="Rectangle 12786" width="233.412" height="7" transform="translate(0 233.412) rotate(-90)" fill="#ee4443"/>
    </g>
    <text id="name-6" data-name="name" transform="translate(69 388) rotate(-90)" fill="#1b1c2b" font-size="8" font-family="SourceSansPro-Bold, Source Sans Pro" font-weight="700"><tspan x="-20.472" y="0">NAME</tspan></text>
    <g id="Group_608-6" data-name="Group 608" transform="translate(62.241 124)">
      <rect id="Rectangle_12788-6" data-name="Rectangle 12788" width="23.174" height="7" transform="translate(0 256.586) rotate(-90)" fill="#273f8f"/>
      <rect id="Rectangle_12786-6" data-name="Rectangle 12786" width="233.412" height="7" transform="translate(0 233.412) rotate(-90)" fill="#ee4443"/>
    </g>
    <text id="name-7" data-name="name" transform="translate(54 388) rotate(-90)" fill="#1b1c2b" font-size="8" font-family="SourceSansPro-Bold, Source Sans Pro" font-weight="700"><tspan x="-20.472" y="0">NAME</tspan></text>
    <g id="Group_608-7" data-name="Group 608" transform="translate(47.241 124)">
      <rect id="Rectangle_12788-7" data-name="Rectangle 12788" width="23.174" height="7" transform="translate(0 256.586) rotate(-90)" fill="#273f8f"/>
      <rect id="Rectangle_12786-7" data-name="Rectangle 12786" width="233.412" height="7" transform="translate(0 233.412) rotate(-90)" fill="#ee4443"/>
    </g>
    <text id="name-8" data-name="name" transform="translate(204.001 388.05) rotate(-90)" fill="#1b1c2b" font-size="8" font-family="SourceSansPro-Bold, Source Sans Pro" font-weight="700"><tspan x="-20.472" y="0">NAME</tspan></text>
    <g id="Group_609" data-name="Group 609" transform="translate(197.001 124)">
      <rect id="Rectangle_12789" data-name="Rectangle 12789" width="46.348" height="7" transform="translate(0 256.634) rotate(-90)" fill="#273f8f"/>
      <rect id="Rectangle_12787" data-name="Rectangle 12787" width="210.286" height="7" transform="translate(0 210.286) rotate(-90)" fill="#ee4443"/>
    </g>
    <text id="name-9" data-name="name" transform="translate(219 388.05) rotate(-90)" fill="#1b1c2b" font-size="8" font-family="SourceSansPro-Bold, Source Sans Pro" font-weight="700"><tspan x="-20.472" y="0">NAME</tspan></text>
    <g id="Group_609-2" data-name="Group 609" transform="translate(212 124)">
      <rect id="Rectangle_12789-2" data-name="Rectangle 12789" width="53.997" height="7" transform="translate(0 256.634) rotate(-90)" fill="#273f8f"/>
      <rect id="Rectangle_12787-2" data-name="Rectangle 12787" width="202.637" height="7" transform="translate(0 202.637) rotate(-90)" fill="#ee4443"/>
    </g>
    <text id="name-10" data-name="name" transform="translate(234 388.05) rotate(-90)" fill="#1b1c2b" font-size="8" font-family="SourceSansPro-Bold, Source Sans Pro" font-weight="700"><tspan x="-20.472" y="0">NAME</tspan></text>
    <g id="Group_609-3" data-name="Group 609" transform="translate(227 124)">
      <rect id="Rectangle_12789-3" data-name="Rectangle 12789" width="53.997" height="7" transform="translate(0 256.634) rotate(-90)" fill="#273f8f"/>
      <rect id="Rectangle_12787-3" data-name="Rectangle 12787" width="202.637" height="7" transform="translate(0 202.637) rotate(-90)" fill="#ee4443"/>
    </g>
    <text id="name-11" data-name="name" transform="translate(249 388.05) rotate(-90)" fill="#1b1c2b" font-size="8" font-family="SourceSansPro-Bold, Source Sans Pro" font-weight="700"><tspan x="-20.472" y="0">NAME</tspan></text>
    <g id="Group_609-4" data-name="Group 609" transform="translate(242 124)">
      <rect id="Rectangle_12789-4" data-name="Rectangle 12789" width="53.997" height="7" transform="translate(0 256.634) rotate(-90)" fill="#273f8f"/>
      <rect id="Rectangle_12787-4" data-name="Rectangle 12787" width="202.637" height="7" transform="translate(0 202.637) rotate(-90)" fill="#ee4443"/>
    </g>
    <text id="name-12" data-name="name" transform="translate(189 388.05) rotate(-90)" fill="#1b1c2b" font-size="8" font-family="SourceSansPro-Bold, Source Sans Pro" font-weight="700"><tspan x="-20.472" y="0">NAME</tspan></text>
    <g id="Group_609-5" data-name="Group 609" transform="translate(182 124)">
      <rect id="Rectangle_12789-5" data-name="Rectangle 12789" width="46.348" height="7" transform="translate(0 256.634) rotate(-90)" fill="#273f8f"/>
      <rect id="Rectangle_12787-5" data-name="Rectangle 12787" width="210.286" height="7" transform="translate(0 210.286) rotate(-90)" fill="#ee4443"/>
    </g>
    <text id="name-13" data-name="name" transform="translate(174 388.05) rotate(-90)" fill="#1b1c2b" font-size="8" font-family="SourceSansPro-Bold, Source Sans Pro" font-weight="700"><tspan x="-20.472" y="0">NAME</tspan></text>
    <g id="Group_609-6" data-name="Group 609" transform="translate(167 124)">
      <rect id="Rectangle_12789-6" data-name="Rectangle 12789" width="46.348" height="7" transform="translate(0 256.634) rotate(-90)" fill="#273f8f"/>
      <rect id="Rectangle_12787-6" data-name="Rectangle 12787" width="210.286" height="7" transform="translate(0 210.286) rotate(-90)" fill="#ee4443"/>
    </g>
    <text id="name-14" data-name="name" transform="translate(159 388.05) rotate(-90)" fill="#1b1c2b" font-size="8" font-family="SourceSansPro-Bold, Source Sans Pro" font-weight="700"><tspan x="-20.472" y="0">NAME</tspan></text>
    <g id="Group_609-7" data-name="Group 609" transform="translate(152 124)">
      <rect id="Rectangle_12789-7" data-name="Rectangle 12789" width="46.348" height="7" transform="translate(0 256.634) rotate(-90)" fill="#273f8f"/>
      <rect id="Rectangle_12787-7" data-name="Rectangle 12787" width="210.286" height="7" transform="translate(0 210.286) rotate(-90)" fill="#ee4443"/>
    </g>
    <text id="name-15" data-name="name" transform="translate(264 388.05) rotate(-90)" fill="#1b1c2b" font-size="8" font-family="SourceSansPro-Bold, Source Sans Pro" font-weight="700"><tspan x="-20.472" y="0">NAME</tspan></text>
    <g id="Group_610" data-name="Group 610" transform="translate(257 124)">
      <rect id="Rectangle_12790" data-name="Rectangle 12790" width="104.785" height="7" transform="translate(0 256.634) rotate(-90)" fill="#273f8f"/>
      <rect id="Rectangle_12791" data-name="Rectangle 12791" width="193.297" height="7" transform="translate(0 193.297) rotate(-90)" fill="#ee4443"/>
    </g>
    <text id="name-16" data-name="name" transform="translate(279 388.05) rotate(-90)" fill="#1b1c2b" font-size="8" font-family="SourceSansPro-Bold, Source Sans Pro" font-weight="700"><tspan x="-20.472" y="0">NAME</tspan></text>
    <g id="Group_610-2" data-name="Group 610" transform="translate(272 124)">
      <rect id="Rectangle_12790-2" data-name="Rectangle 12790" width="104.785" height="7" transform="translate(0 256.634) rotate(-90)" fill="#273f8f"/>
      <rect id="Rectangle_12791-2" data-name="Rectangle 12791" width="193.297" height="7" transform="translate(0 193.297) rotate(-90)" fill="#ee4443"/>
    </g>
    <text id="name-17" data-name="name" transform="translate(294 388.05) rotate(-90)" fill="#1b1c2b" font-size="8" font-family="SourceSansPro-Bold, Source Sans Pro" font-weight="700"><tspan x="-20.472" y="0">NAME</tspan></text>
    <g id="Group_611" data-name="Group 611" transform="translate(287 124)">
      <rect id="Rectangle_12792" data-name="Rectangle 12792" width="104.785" height="7" transform="translate(0 256.634) rotate(-90)" fill="#273f8f"/>
      <rect id="Rectangle_12793" data-name="Rectangle 12793" width="193.297" height="7" transform="translate(0 193.297) rotate(-90)" fill="#ee4443"/>
    </g>
    <text id="name-18" data-name="name" transform="translate(308.999 388.05) rotate(-90)" fill="#1b1c2b" font-size="8" font-family="SourceSansPro-Bold, Source Sans Pro" font-weight="700"><tspan x="-20.472" y="0">NAME</tspan></text>
    <g id="Group_611-2" data-name="Group 611" transform="translate(301.999 124)">
      <rect id="Rectangle_12792-2" data-name="Rectangle 12792" width="104.785" height="7" transform="translate(0 256.634) rotate(-90)" fill="#273f8f"/>
      <rect id="Rectangle_12793-2" data-name="Rectangle 12793" width="193.297" height="7" transform="translate(0 193.297) rotate(-90)" fill="#ee4443"/>
    </g>
    <text id="name-19" data-name="name" transform="translate(324 388.05) rotate(-90)" fill="#1b1c2b" font-size="8" font-family="SourceSansPro-Bold, Source Sans Pro" font-weight="700"><tspan x="-20.472" y="0">NAME</tspan></text>
    <g id="Group_611-3" data-name="Group 611" transform="translate(317 124)">
      <rect id="Rectangle_12792-3" data-name="Rectangle 12792" width="104.785" height="7" transform="translate(0 256.634) rotate(-90)" fill="#273f8f"/>
      <rect id="Rectangle_12793-3" data-name="Rectangle 12793" width="193.297" height="7" transform="translate(0 193.297) rotate(-90)" fill="#ee4443"/>
    </g>
    <text id="name-20" data-name="name" transform="translate(339.001 388.05) rotate(-90)" fill="#1b1c2b" font-size="8" font-family="SourceSansPro-Bold, Source Sans Pro" font-weight="700"><tspan x="-20.472" y="0">NAME</tspan></text>
    <g id="Group_611-4" data-name="Group 611" transform="translate(332.001 124)">
      <rect id="Rectangle_12792-4" data-name="Rectangle 12792" width="104.785" height="7" transform="translate(0 256.634) rotate(-90)" fill="#273f8f"/>
      <rect id="Rectangle_12793-4" data-name="Rectangle 12793" width="180.648" height="7" transform="translate(0 180.648) rotate(-90)" fill="#ee4443"/>
    </g>
    <text id="name-21" data-name="name" transform="translate(354 388.05) rotate(-90)" fill="#1b1c2b" font-size="8" font-family="SourceSansPro-Bold, Source Sans Pro" font-weight="700"><tspan x="-20.472" y="0">NAME</tspan></text>
    <g id="Group_611-5" data-name="Group 611" transform="translate(347 124)">
      <rect id="Rectangle_12792-5" data-name="Rectangle 12792" width="104.785" height="7" transform="translate(0 256.634) rotate(-90)" fill="#273f8f"/>
      <rect id="Rectangle_12793-5" data-name="Rectangle 12793" width="180.648" height="7" transform="translate(0 180.648) rotate(-90)" fill="#ee4443"/>
    </g>
    <text id="name-22" data-name="name" transform="translate(369 388.05) rotate(-90)" fill="#1b1c2b" font-size="8" font-family="SourceSansPro-Bold, Source Sans Pro" font-weight="700"><tspan x="-20.472" y="0">NAME</tspan></text>
    <g id="Group_611-6" data-name="Group 611" transform="translate(362 124)">
      <rect id="Rectangle_12792-6" data-name="Rectangle 12792" width="104.785" height="7" transform="translate(0 256.634) rotate(-90)" fill="#273f8f"/>
      <rect id="Rectangle_12793-6" data-name="Rectangle 12793" width="180.648" height="7" transform="translate(0 180.648) rotate(-90)" fill="#ee4443"/>
    </g>
    <text id="name-23" data-name="name" transform="translate(384 388.05) rotate(-90)" fill="#1b1c2b" font-size="8" font-family="SourceSansPro-Bold, Source Sans Pro" font-weight="700"><tspan x="-20.472" y="0">NAME</tspan></text>
    <g id="Group_611-7" data-name="Group 611" transform="translate(377 124)">
      <rect id="Rectangle_12792-7" data-name="Rectangle 12792" width="104.785" height="7" transform="translate(0 256.634) rotate(-90)" fill="#273f8f"/>
      <rect id="Rectangle_12793-7" data-name="Rectangle 12793" width="180.648" height="7" transform="translate(0 180.648) rotate(-90)" fill="#ee4443"/>
    </g>
    <text id="name-24" data-name="name" transform="translate(399.001 388.05) rotate(-90)" fill="#1b1c2b" font-size="8" font-family="SourceSansPro-Bold, Source Sans Pro" font-weight="700"><tspan x="-20.472" y="0">NAME</tspan></text>
    <g id="Group_611-8" data-name="Group 611" transform="translate(392.001 124)">
      <rect id="Rectangle_12792-8" data-name="Rectangle 12792" width="104.785" height="7" transform="translate(0 256.634) rotate(-90)" fill="#273f8f"/>
      <rect id="Rectangle_12793-8" data-name="Rectangle 12793" width="170.275" height="7" transform="translate(0 170.275) rotate(-90)" fill="#ee4443"/>
    </g>
    <text id="name-25" data-name="name" transform="translate(414 388.05) rotate(-90)" fill="#1b1c2b" font-size="8" font-family="SourceSansPro-Bold, Source Sans Pro" font-weight="700"><tspan x="-20.472" y="0">NAME</tspan></text>
    <g id="Group_611-9" data-name="Group 611" transform="translate(407 124)">
      <rect id="Rectangle_12792-9" data-name="Rectangle 12792" width="104.785" height="7" transform="translate(0 256.634) rotate(-90)" fill="#273f8f"/>
      <rect id="Rectangle_12793-9" data-name="Rectangle 12793" width="170.275" height="7" transform="translate(0 170.275) rotate(-90)" fill="#ee4443"/>
    </g>
    <text id="name-26" data-name="name" transform="translate(430 388.05) rotate(-90)" fill="#1b1c2b" font-size="8" font-family="SourceSansPro-Bold, Source Sans Pro" font-weight="700"><tspan x="-20.472" y="0">NAME</tspan></text>
    <g id="Group_612" data-name="Group 612" transform="translate(423 124)">
      <rect id="Rectangle_12794" data-name="Rectangle 12794" width="151.085" height="6.925" transform="translate(0 256.634) rotate(-90)" fill="#273f8f"/>
      <rect id="Rectangle_12795" data-name="Rectangle 12795" width="147" height="6.925" transform="translate(0.075 147) rotate(-90)" fill="#ee4443"/>
    </g>
    <text id="name-27" data-name="name" transform="translate(445 388.05) rotate(-90)" fill="#1b1c2b" font-size="8" font-family="SourceSansPro-Bold, Source Sans Pro" font-weight="700"><tspan x="-20.472" y="0">NAME</tspan></text>
    <g id="Group_612-2" data-name="Group 612" transform="translate(438 124)">
      <rect id="Rectangle_12794-2" data-name="Rectangle 12794" width="151.085" height="6.766" transform="translate(0 256.634) rotate(-90)" fill="#273f8f"/>
      <rect id="Rectangle_12795-2" data-name="Rectangle 12795" width="147" height="6.766" transform="translate(0.234 147) rotate(-90)" fill="#ee4443"/>
    </g>
    <text id="name-28" data-name="name" transform="translate(460 388.05) rotate(-90)" fill="#1b1c2b" font-size="8" font-family="SourceSansPro-Bold, Source Sans Pro" font-weight="700"><tspan x="-20.472" y="0">NAME</tspan></text>
    <g id="Group_612-3" data-name="Group 612" transform="translate(453 124)">
      <rect id="Rectangle_12794-3" data-name="Rectangle 12794" width="151.085" height="6.671" transform="translate(0 256.634) rotate(-90)" fill="#273f8f"/>
      <rect id="Rectangle_12795-3" data-name="Rectangle 12795" width="147" height="6.671" transform="translate(0.329 147) rotate(-90)" fill="#ee4443"/>
    </g>
    <text id="name-29" data-name="name" transform="translate(475 388.05) rotate(-90)" fill="#1b1c2b" font-size="8" font-family="SourceSansPro-Bold, Source Sans Pro" font-weight="700"><tspan x="-20.472" y="0">NAME</tspan></text>
    <g id="Group_612-4" data-name="Group 612" transform="translate(468 124)">
      <rect id="Rectangle_12794-4" data-name="Rectangle 12794" width="151.085" height="7" transform="translate(0 256.634) rotate(-90)" fill="#273f8f"/>
      <rect id="Rectangle_12795-4" data-name="Rectangle 12795" width="138.43" height="7" transform="translate(0 138.43) rotate(-90)" fill="#ee4443"/>
    </g>
    <text id="name-30" data-name="name" transform="translate(490 388.05) rotate(-90)" fill="#1b1c2b" font-size="8" font-family="SourceSansPro-Bold, Source Sans Pro" font-weight="700"><tspan x="-20.472" y="0">NAME</tspan></text>
    <g id="Group_612-5" data-name="Group 612" transform="translate(483 124)">
      <rect id="Rectangle_12794-5" data-name="Rectangle 12794" width="151.085" height="7" transform="translate(0 256.634) rotate(-90)" fill="#273f8f"/>
      <rect id="Rectangle_12795-5" data-name="Rectangle 12795" width="138.43" height="7" transform="translate(0 138.43) rotate(-90)" fill="#ee4443"/>
    </g>
    <text id="name-31" data-name="name" transform="translate(505 388.05) rotate(-90)" fill="#1b1c2b" font-size="8" font-family="SourceSansPro-Bold, Source Sans Pro" font-weight="700"><tspan x="-20.472" y="0">NAME</tspan></text>
    <g id="Group_612-6" data-name="Group 612" transform="translate(498 124)">
      <rect id="Rectangle_12794-6" data-name="Rectangle 12794" width="151.085" height="7" transform="translate(0 256.634) rotate(-90)" fill="#273f8f"/>
      <rect id="Rectangle_12795-6" data-name="Rectangle 12795" width="138.43" height="7" transform="translate(0 138.43) rotate(-90)" fill="#ee4443"/>
    </g>
    <text id="name-32" data-name="name" transform="translate(520 388.05) rotate(-90)" fill="#1b1c2b" font-size="8" font-family="SourceSansPro-Bold, Source Sans Pro" font-weight="700"><tspan x="-20.472" y="0">NAME</tspan></text>
    <g id="Group_612-7" data-name="Group 612" transform="translate(513 124)">
      <rect id="Rectangle_12794-7" data-name="Rectangle 12794" width="151.085" height="7" transform="translate(0 256.634) rotate(-90)" fill="#273f8f"/>
      <rect id="Rectangle_12795-7" data-name="Rectangle 12795" width="138.43" height="7" transform="translate(0 138.43) rotate(-90)" fill="#ee4443"/>
    </g>
    <text id="name-33" data-name="name" transform="translate(535 388.05) rotate(-90)" fill="#1b1c2b" font-size="8" font-family="SourceSansPro-Bold, Source Sans Pro" font-weight="700"><tspan x="-20.472" y="0">NAME</tspan></text>
    <g id="Group_612-8" data-name="Group 612" transform="translate(528 124)">
      <rect id="Rectangle_12794-8" data-name="Rectangle 12794" width="151.085" height="7" transform="translate(0 256.634) rotate(-90)" fill="#273f8f"/>
      <rect id="Rectangle_12795-8" data-name="Rectangle 12795" width="123.731" height="7" transform="translate(0 123.731) rotate(-90)" fill="#ee4443"/>
    </g>
    <text id="name-34" data-name="name" transform="translate(549.999 388.05) rotate(-90)" fill="#1b1c2b" font-size="8" font-family="SourceSansPro-Bold, Source Sans Pro" font-weight="700"><tspan x="-20.472" y="0">NAME</tspan></text>
    <g id="Group_612-9" data-name="Group 612" transform="translate(542.999 124)">
      <rect id="Rectangle_12794-9" data-name="Rectangle 12794" width="151.085" height="7" transform="translate(0 256.634) rotate(-90)" fill="#273f8f"/>
      <rect id="Rectangle_12795-9" data-name="Rectangle 12795" width="123.731" height="7" transform="translate(0 123.731) rotate(-90)" fill="#ee4443"/>
    </g>
    <text id="name-35" data-name="name" transform="translate(565 388.05) rotate(-90)" fill="#1b1c2b" font-size="8" font-family="SourceSansPro-Bold, Source Sans Pro" font-weight="700"><tspan x="-20.472" y="0">NAME</tspan></text>
    <g id="Group_612-10" data-name="Group 612" transform="translate(558 124)">
      <rect id="Rectangle_12794-10" data-name="Rectangle 12794" width="151.085" height="7" transform="translate(0 256.634) rotate(-90)" fill="#273f8f"/>
      <rect id="Rectangle_12795-10" data-name="Rectangle 12795" width="123.731" height="7" transform="translate(0 123.731) rotate(-90)" fill="#ee4443"/>
    </g>
    <text id="name-36" data-name="name" transform="translate(580 388.05) rotate(-90)" fill="#1b1c2b" font-size="8" font-family="SourceSansPro-Bold, Source Sans Pro" font-weight="700"><tspan x="-20.472" y="0">NAME</tspan></text>
    <g id="Group_612-11" data-name="Group 612" transform="translate(573 124)">
      <rect id="Rectangle_12794-11" data-name="Rectangle 12794" width="151.085" height="7" transform="translate(0 256.634) rotate(-90)" fill="#273f8f"/>
      <rect id="Rectangle_12795-11" data-name="Rectangle 12795" width="123.731" height="7" transform="translate(0 123.731) rotate(-90)" fill="#ee4443"/>
    </g>
    <text id="name-37" data-name="name" transform="translate(595 388.05) rotate(-90)" fill="#1b1c2b" font-size="8" font-family="SourceSansPro-Bold, Source Sans Pro" font-weight="700"><tspan x="-20.472" y="0">NAME</tspan></text>
    <g id="Group_612-12" data-name="Group 612" transform="translate(588 124)">
      <rect id="Rectangle_12794-12" data-name="Rectangle 12794" width="151.085" height="7" transform="translate(0 256.634) rotate(-90)" fill="#273f8f"/>
      <rect id="Rectangle_12795-12" data-name="Rectangle 12795" width="113.748" height="7" transform="translate(0 113.748) rotate(-90)" fill="#ee4443"/>
    </g>
    <text id="name-38" data-name="name" transform="translate(610 388.05) rotate(-90)" fill="#1b1c2b" font-size="8" font-family="SourceSansPro-Bold, Source Sans Pro" font-weight="700"><tspan x="-20.472" y="0">NAME</tspan></text>
    <g id="Group_612-13" data-name="Group 612" transform="translate(603 124)">
      <rect id="Rectangle_12794-13" data-name="Rectangle 12794" width="151.085" height="7" transform="translate(0 256.634) rotate(-90)" fill="#273f8f"/>
      <rect id="Rectangle_12795-13" data-name="Rectangle 12795" width="113.748" height="7" transform="translate(0 113.748) rotate(-90)" fill="#ee4443"/>
    </g>
    <text id="name-39" data-name="name" transform="translate(625 388.05) rotate(-90)" fill="#1b1c2b" font-size="8" font-family="SourceSansPro-Bold, Source Sans Pro" font-weight="700"><tspan x="-20.472" y="0">NAME</tspan></text>
    <g id="Group_612-14" data-name="Group 612" transform="translate(618 124)">
      <rect id="Rectangle_12794-14" data-name="Rectangle 12794" width="151.085" height="7" transform="translate(0 256.634) rotate(-90)" fill="#273f8f"/>
      <rect id="Rectangle_12795-14" data-name="Rectangle 12795" width="113.748" height="7" transform="translate(0 113.748) rotate(-90)" fill="#ee4443"/>
    </g>
    <text id="name-40" data-name="name" transform="translate(640.001 388.327) rotate(-90)" fill="#1b1c2b" font-size="8" font-family="SourceSansPro-Bold, Source Sans Pro" font-weight="700"><tspan x="-20.472" y="0">NAME</tspan></text>
    <g id="Group_613" data-name="Group 613" transform="translate(633.001 124)">
      <rect id="Rectangle_12796" data-name="Rectangle 12796" width="194.136" height="7" transform="translate(0 256.91) rotate(-90)" fill="#273f8f"/>
      <rect id="Rectangle_12797" data-name="Rectangle 12797" width="104.222" height="7" transform="translate(0 104.222) rotate(-90)" fill="#ee4443"/>
    </g>
    <text id="name-41" data-name="name" transform="translate(654.999 388.327) rotate(-90)" fill="#1b1c2b" font-size="8" font-family="SourceSansPro-Bold, Source Sans Pro" font-weight="700"><tspan x="-20.472" y="0">NAME</tspan></text>
    <g id="Group_613-2" data-name="Group 613" transform="translate(647.999 124)">
      <rect id="Rectangle_12796-2" data-name="Rectangle 12796" width="194.136" height="7" transform="translate(0 256.91) rotate(-90)" fill="#273f8f"/>
      <rect id="Rectangle_12797-2" data-name="Rectangle 12797" width="104.222" height="7" transform="translate(0 104.222) rotate(-90)" fill="#ee4443"/>
    </g>
    <text id="name-42" data-name="name" transform="translate(700 388.05) rotate(-90)" fill="#1b1c2b" font-size="8" font-family="SourceSansPro-Bold, Source Sans Pro" font-weight="700"><tspan x="-20.472" y="0">NAME</tspan></text>
    <g id="Group_614" data-name="Group 614" transform="translate(693 124)">
      <rect id="Rectangle_12798" data-name="Rectangle 12798" width="180.27" height="7" transform="translate(0 256.634) rotate(-90)" fill="#273f8f"/>
      <rect id="Rectangle_12799" data-name="Rectangle 12799" width="76.364" height="7" transform="translate(0 76.364) rotate(-90)" fill="#ee4443"/>
    </g>
    <text id="name-43" data-name="name" transform="translate(685 388.05) rotate(-90)" fill="#1b1c2b" font-size="8" font-family="SourceSansPro-Bold, Source Sans Pro" font-weight="700"><tspan x="-20.472" y="0">NAME</tspan></text>
    <g id="Group_614-2" data-name="Group 614" transform="translate(678 124)">
      <rect id="Rectangle_12798-2" data-name="Rectangle 12798" width="180.27" height="7" transform="translate(0 256.634) rotate(-90)" fill="#273f8f"/>
      <rect id="Rectangle_12799-2" data-name="Rectangle 12799" width="76.364" height="7" transform="translate(0 76.364) rotate(-90)" fill="#ee4443"/>
    </g>
    <text id="name-44" data-name="name" transform="translate(670 388.05) rotate(-90)" fill="#1b1c2b" font-size="8" font-family="SourceSansPro-Bold, Source Sans Pro" font-weight="700"><tspan x="-20.472" y="0">NAME</tspan></text>
    <g id="Group_614-3" data-name="Group 614" transform="translate(663 124)">
      <rect id="Rectangle_12798-3" data-name="Rectangle 12798" width="180.27" height="7" transform="translate(0 256.634) rotate(-90)" fill="#273f8f"/>
      <rect id="Rectangle_12799-3" data-name="Rectangle 12799" width="76.364" height="7" transform="translate(0 76.364) rotate(-90)" fill="#ee4443"/>
    </g>
    <text id="name-45" data-name="name" transform="translate(745 388.05) rotate(-90)" fill="#1b1c2b" font-size="8" font-family="SourceSansPro-Bold, Source Sans Pro" font-weight="700"><tspan x="-20.472" y="0">NAME</tspan></text>
    <g id="Group_615" data-name="Group 615" transform="translate(738 124)">
      <rect id="Rectangle_12800" data-name="Rectangle 12800" width="195.696" height="7" transform="translate(0 257.04) rotate(-90)" fill="#273f8f"/>
      <rect id="Rectangle_12801" data-name="Rectangle 12801" width="61.344" height="7" transform="translate(0 61.344) rotate(-90)" fill="#ee4443"/>
    </g>
    <text id="name-46" data-name="name" transform="translate(760 388.05) rotate(-90)" fill="#1b1c2b" font-size="8" font-family="SourceSansPro-Bold, Source Sans Pro" font-weight="700"><tspan x="-20.472" y="0">NAME</tspan></text>
    <g id="Group_615-2" data-name="Group 615" transform="translate(753 124)">
      <rect id="Rectangle_12800-2" data-name="Rectangle 12800" width="206.061" height="7" transform="translate(0 257.04) rotate(-90)" fill="#273f8f"/>
      <rect id="Rectangle_12801-2" data-name="Rectangle 12801" width="50.979" height="7" transform="translate(0 50.979) rotate(-90)" fill="#ee4443"/>
    </g>
    <text id="name-47" data-name="name" transform="translate(775 388.05) rotate(-90)" fill="#1b1c2b" font-size="8" font-family="SourceSansPro-Bold, Source Sans Pro" font-weight="700"><tspan x="-20.472" y="0">NAME</tspan></text>
    <g id="Group_615-3" data-name="Group 615" transform="translate(767.942 124)">
      <rect id="Rectangle_12800-3" data-name="Rectangle 12800" width="206.061" height="7" transform="translate(0 257.04) rotate(-90)" fill="#273f8f"/>
      <rect id="Rectangle_12801-3" data-name="Rectangle 12801" width="50.979" height="7" transform="translate(0 50.979) rotate(-90)" fill="#ee4443"/>
    </g>
    <text id="name-48" data-name="name" transform="translate(790 388.05) rotate(-90)" fill="#1b1c2b" font-size="8" font-family="SourceSansPro-Bold, Source Sans Pro" font-weight="700"><tspan x="-20.472" y="0">NAME</tspan></text>
    <g id="Group_615-4" data-name="Group 615" transform="translate(782.942 124)">
      <rect id="Rectangle_12800-4" data-name="Rectangle 12800" width="206.061" height="7" transform="translate(0 257.04) rotate(-90)" fill="#273f8f"/>
      <rect id="Rectangle_12801-4" data-name="Rectangle 12801" width="50.979" height="7" transform="translate(0 50.979) rotate(-90)" fill="#ee4443"/>
    </g>
    <text id="name-49" data-name="name" transform="translate(730 388.05) rotate(-90)" fill="#1b1c2b" font-size="8" font-family="SourceSansPro-Bold, Source Sans Pro" font-weight="700"><tspan x="-20.472" y="0">NAME</tspan></text>
    <g id="Group_615-5" data-name="Group 615" transform="translate(723 124)">
      <rect id="Rectangle_12800-5" data-name="Rectangle 12800" width="195.696" height="7" transform="translate(0 257.04) rotate(-90)" fill="#273f8f"/>
      <rect id="Rectangle_12801-5" data-name="Rectangle 12801" width="61.344" height="7" transform="translate(0 61.344) rotate(-90)" fill="#ee4443"/>
    </g>
    <text id="name-50" data-name="name" transform="translate(715 388.05) rotate(-90)" fill="#1b1c2b" font-size="8" font-family="SourceSansPro-Bold, Source Sans Pro" font-weight="700"><tspan x="-20.472" y="0">NAME</tspan></text>
    <g id="Group_615-6" data-name="Group 615" transform="translate(708 124)">
      <rect id="Rectangle_12800-6" data-name="Rectangle 12800" width="195.696" height="7" transform="translate(0 257.04) rotate(-90)" fill="#273f8f"/>
      <rect id="Rectangle_12801-6" data-name="Rectangle 12801" width="61.344" height="7" transform="translate(0 61.344) rotate(-90)" fill="#ee4443"/>
    </g>
  </g>
</svg>
